<?xml version="1.0" encoding="UTF-8" standalone="no"?>
<svg
   xmlns:dc="http://purl.org/dc/elements/1.1/"
   xmlns:cc="http://creativecommons.org/ns#"
   xmlns:rdf="http://www.w3.org/1999/02/22-rdf-syntax-ns#"
   xmlns:svg="http://www.w3.org/2000/svg"
   xmlns="http://www.w3.org/2000/svg"
   viewBox="0 0 640 640"
   height="640"
   width="640"
   id="svg2"
   version="1.1">
  <metadata
     id="metadata8">
    <rdf:RDF>
      <cc:Work
         rdf:about="">
        <dc:format>image/svg+xml</dc:format>
        <dc:type
           rdf:resource="http://purl.org/dc/dcmitype/StillImage" />
        <dc:title></dc:title>
      </cc:Work>
    </rdf:RDF>
  </metadata>
  <defs
     id="defs6" />
  <g
     transform="translate(157.70467,11.321563)"
     style="display:inline"
     id="layer3">
    <g
       transform="matrix(1.391,0,0,1.391,-188.73518,-74.51014)"
       id="g996"
       style="display:inline">
      <path
         id="path1004"
         d="m 214.47941,497.09522 c -0.37644,-0.37644 0.37644,0.37644 0,0 z m 264.17105,-4.57366 c 1.23244,-1.01678 -1.15244,0.95077 0,0 z M 27.316347,355.27966 c 2.8e-5,-74.8 0.118859,-105.2524 0.26407,-67.67199 0.145211,37.5804 0.145188,98.7804 -5.1e-5,136 -0.145238,37.21959 -0.264046,6.47199 -0.264019,-68.32801 z m 453.000003,0 c 3e-5,-74.8 0.11886,-105.2524 0.26407,-67.67199 0.14521,37.5804 0.14519,98.7804 -5e-5,136 -0.14524,37.21959 -0.26405,6.47199 -0.26402,-68.32801 z m -229.6805,115.41636 c -4.91076,-8.35324 -13.22317,-14.32335 -25.80534,-18.53382 -5.08908,-1.703 -11.17821,-1.87943 -81.5,-2.36152 l -76.000002,-0.52102 -0.5,-116 -0.5,-116 -17.869149,-0.27356 c -13.334834,-0.20414 -18.260807,0.0496 -19.412621,1 -1.279303,1.05559 -1.458844,1.01683 -1.049016,-0.22644 0.407503,-1.23621 3.733493,-1.58793 18.912622,-2 l 18.418164,-0.5 0.274179,-16.75 0.274179,-16.75 73.225824,0.008 c 45.88961,0.005 75.61906,0.39587 79.63661,1.04773 16.0799,2.60904 26.55609,9.28109 33.60477,21.40212 0.88047,1.51407 1.44716,1.08032 4.26009,-3.26078 5.80828,-8.96369 13.62979,-14.2799 26.29575,-17.87296 5.96788,-1.69301 11.91111,-1.82371 82.9286,-1.82371 l 74.95122,1.40737 1.8223,15.82016 0.27351,17.22753 18.14402,0.27247 c 15.07503,0.22638 17.36485,0.14267 17.7762,1.38895 0.40276,1.22029 -0.25802,1.88067 -1.46725,0.88312 -1.02134,-0.84254 -5.75647,-1.53768 -18.0738,-1.72581 l -17.9262,-0.27379 -0.27439,-16.79612 -0.27439,-16.79611 -76.72561,0.32592 c -71.1717,0.30233 -77.12374,0.45843 -82.22561,2.15643 -12.40188,4.12758 -18.93598,8.81633 -24,17.22197 l -3.5,5.80956 -0.5,133.53918 -0.5,133.53917 z m -16.80534,-55.9496 c 0,-3.54927 -4.66321,-11.4016 -9.32029,-15.69435 -5.13742,-4.73551 -11.72672,-8.31602 -19.67971,-10.69363 -9.2304,-2.7595 -35.35284,-3.86934 -61.96846,-2.6328 -35.10563,1.63098 -49.031542,3.32427 -49.031542,5.96188 0,3.06273 22.698212,5.02964 70.000002,6.06583 31.12686,0.68187 39.64441,1.16543 44.47571,2.52497 7.81187,2.19829 12.90576,5.27156 18.9867,11.45516 5.45824,5.55039 6.53759,6.04782 6.53759,3.01294 z m 0,-40 c 0,-3.54927 -4.66321,-11.4016 -9.32029,-15.69435 -5.13742,-4.73551 -11.72672,-8.31602 -19.67971,-10.69363 -9.2304,-2.7595 -35.35284,-3.86934 -61.96846,-2.6328 -35.10563,1.63098 -49.031542,3.32427 -49.031542,5.96188 0,3.06273 22.698212,5.02964 70.000002,6.06583 31.12686,0.68187 39.64441,1.16543 44.47571,2.52497 7.81187,2.19829 12.90576,5.27156 18.9867,11.45516 5.45824,5.55039 6.53759,6.04782 6.53759,3.01294 z m 0,-40 c 0,-3.54927 -4.66321,-11.4016 -9.32029,-15.69435 -5.13742,-4.73551 -11.72672,-8.31602 -19.67971,-10.69363 -9.2304,-2.7595 -35.35284,-3.86934 -61.96846,-2.6328 -35.10563,1.63098 -49.031542,3.32427 -49.031542,5.96188 0,3.06273 22.698212,5.02964 70.000002,6.06583 31.12686,0.68187 39.64441,1.16543 44.47571,2.52497 7.81187,2.19829 12.90576,5.27156 18.9867,11.45516 5.45824,5.55039 6.53759,6.04782 6.53759,3.01294 z m 0,-40 c 0,-3.54927 -4.66321,-11.4016 -9.32029,-15.69435 -5.13742,-4.73551 -11.72672,-8.31602 -19.67971,-10.69363 -9.2304,-2.7595 -35.35284,-3.86934 -61.96846,-2.6328 -35.10563,1.63098 -49.031542,3.32427 -49.031542,5.96188 0,3.06273 22.698212,5.02964 70.000002,6.06583 31.12686,0.68187 39.64441,1.16543 44.47571,2.52497 7.81187,2.19829 12.90576,5.27156 18.9867,11.45516 5.45824,5.55039 6.53759,6.04782 6.53759,3.01294 z m 0,-40 c 0,-3.54927 -4.66321,-11.4016 -9.32029,-15.69435 -5.13742,-4.73551 -11.72672,-8.31602 -19.67971,-10.69363 -9.2304,-2.7595 -35.35284,-3.86934 -61.96846,-2.6328 -35.10563,1.63098 -49.031542,3.32427 -49.031542,5.96188 0,3.06273 22.698212,5.02964 70.000002,6.06583 31.12686,0.68187 39.64441,1.16543 44.47571,2.52497 7.81187,2.19829 12.90576,5.27156 18.9867,11.45516 5.45824,5.55039 6.53759,6.04782 6.53759,3.01294 z"
         style="fill:#f9eec0" />
      <path
         id="path1002"
         d="m 271.83051,504.54766 c -1.925,0 1.925,0 0,0 z m -24.11071,-7.2098 c 2.15967,-2.60125 6.11071,-7.0582 6.11071,-7.0582 0,0 3.89082,5.23857 6.25453,7.75332 0.75882,0.80731 1.20923,1.28522 -1.4864,-1.21531 -1.22659,-1.13781 -4.49313,-5.02261 -4.76813,-5.02261 -0.275,0 -9.8388,10.03314 -6.11071,5.5428 z m 48.92321,-3.24131 c 0.72187,-0.28887 -0.79773,0.31918 0,-4e-5 z M 29.030508,492.57966 c -1.904184,-1.90418 -1.725628,-273.11888 0.180851,-274.70111 0.952939,-0.79087 6.918307,-1.06124 19.25,-0.87245 l 17.869149,0.27356 0.5,116 0.5,116 76.000002,0.52102 c 70.32179,0.48209 76.41092,0.65852 81.5,2.36152 12.58217,4.21047 20.89458,10.18058 25.80534,18.53382 l 2.69466,4.58364 0.5,-133.53917 0.5,-133.53918 3.5,-5.80956 c 5.06402,-8.40564 11.59812,-13.09439 24,-17.22197 5.10187,-1.698 11.05391,-1.8541 82.22561,-2.15643 l 76.72561,-0.32592 0.27439,16.79611 0.27439,16.79612 17.9262,0.27379 c 11.15322,0.17035 18.42637,0.68889 19.25,1.37245 1.85541,1.53985 0.99043,272.17935 0.1238,274.65376 -0.47507,1.35643 -18.14253,0.67185 -73.61441,0.18015 l -72.99068,-0.64698 73.33899,0.10037 72.9661,0.0665 v -137 -137 l -18.25,-0.27256 -18.25,-0.27256 V 333.0571 c 0,88.36199 -0.28054,115.6031 -1.2,116.52256 -0.91137,0.91137 -18.7228,1.2 -74.05259,1.2 -80.21744,0 -80.86277,0.043 -93.12264,6.20313 -7.51596,3.7765 -14.79093,11.04663 -17.0974,17.08602 -0.98949,2.59097 -2.13514,4.71085 -2.54588,4.71085 -0.41073,0 -1.94986,-2.459 -3.42029,-5.46444 -4.56116,-9.32267 -14.71744,-16.71813 -27.79204,-20.2372 -5.52283,-1.48649 -15.19779,-1.7535 -81.26916,-2.24287 l -75.000002,-0.55549 -0.5,-116 -0.5,-116 h -18 -18 v 137 137 l 73.338982,-0.16816 72.66102,-0.0326 -72.55,1.46054 c -15.745848,0.31699 -72.83425,-0.0441 -73.750002,-0.95981 z m 272.561662,0.49274 c 1.24391,-0.23919 -1.24391,0.23921 0,2e-5 z m -74.29925,-81.33892 c -6.08094,-6.1836 -11.17483,-9.25687 -18.9867,-11.45516 -4.8313,-1.35954 -13.34885,-1.8431 -44.47571,-2.52497 -47.30179,-1.03619 -70.000002,-3.0031 -70.000002,-6.06583 0,-2.63761 13.925912,-4.3309 49.031542,-5.96188 26.61562,-1.23654 52.73806,-0.1267 61.96846,2.6328 12.41499,3.71156 22.19033,10.91649 26.5895,19.59783 2.38687,4.71027 3.14341,8.82339 1.62291,8.82339 -0.43318,0 -3.02068,-2.27078 -5.75,-5.04618 z m 1.61683,-4.7985 c -3.85103,-7.54865 -14.04652,-14.0337 -28.07924,-17.86038 -13.9791,-3.81206 -106.920072,-1.07178 -100.39636,2.9601 2.61887,1.61855 25.21526,3.01095 60.89636,3.75246 42.6929,0.88722 46.85945,1.40183 57.56996,7.11047 3.16585,1.68738 6.77367,4.15113 8.01738,5.475 3.34288,3.55833 4.21832,2.92649 1.9919,-1.43765 z m -1.61683,-35.2015 c -6.08094,-6.1836 -11.17483,-9.25687 -18.9867,-11.45516 -4.8313,-1.35954 -13.34885,-1.8431 -44.47571,-2.52497 -47.30179,-1.03619 -70.000002,-3.0031 -70.000002,-6.06583 0,-2.63761 13.925912,-4.3309 49.031542,-5.96188 26.61562,-1.23654 52.73806,-0.1267 61.96846,2.6328 12.41499,3.71156 22.19033,10.91649 26.5895,19.59783 2.38687,4.71027 3.14341,8.82339 1.62291,8.82339 -0.43318,0 -3.02068,-2.27078 -5.75,-5.04618 z m 1.61683,-4.7985 c -3.85103,-7.54865 -14.04652,-14.0337 -28.07924,-17.86038 -13.9791,-3.81206 -106.920072,-1.07178 -100.39636,2.9601 2.61887,1.61855 25.21526,3.01095 60.89636,3.75246 42.6929,0.88722 46.85945,1.40183 57.56996,7.11047 3.16585,1.68738 6.77367,4.15113 8.01738,5.475 3.34288,3.55833 4.21832,2.92649 1.9919,-1.43765 z m -1.61683,-35.2015 c -6.08094,-6.1836 -11.17483,-9.25687 -18.9867,-11.45516 -4.8313,-1.35954 -13.34885,-1.8431 -44.47571,-2.52497 -47.30179,-1.03619 -70.000002,-3.0031 -70.000002,-6.06583 0,-2.63761 13.925912,-4.3309 49.031542,-5.96188 26.61562,-1.23654 52.73806,-0.1267 61.96846,2.6328 12.41499,3.71156 22.19033,10.91649 26.5895,19.59783 2.38687,4.71027 3.14341,8.82339 1.62291,8.82339 -0.43318,0 -3.02068,-2.27078 -5.75,-5.04618 z m 1.61683,-4.7985 c -3.85103,-7.54865 -14.04652,-14.0337 -28.07924,-17.86038 -13.9791,-3.81206 -106.920072,-1.07178 -100.39636,2.9601 2.61887,1.61855 25.21526,3.01095 60.89636,3.75246 42.6929,0.88722 46.85945,1.40183 57.56996,7.11047 3.16585,1.68738 6.77367,4.15113 8.01738,5.475 3.34288,3.55833 4.21832,2.92649 1.9919,-1.43765 z m -1.61683,-35.2015 c -6.08094,-6.1836 -11.17483,-9.25687 -18.9867,-11.45516 -4.8313,-1.35954 -13.34885,-1.8431 -44.47571,-2.52497 -47.30179,-1.03619 -70.000002,-3.0031 -70.000002,-6.06583 0,-2.63761 13.925912,-4.3309 49.031542,-5.96188 26.61562,-1.23654 52.73806,-0.1267 61.96846,2.6328 12.41499,3.71156 22.19033,10.91649 26.5895,19.59783 2.38687,4.71027 3.14341,8.82339 1.62291,8.82339 -0.43318,0 -3.02068,-2.27078 -5.75,-5.04618 z m 1.61683,-4.7985 c -3.85103,-7.54865 -14.04652,-14.0337 -28.07924,-17.86038 -13.9791,-3.81206 -106.920072,-1.07178 -100.39636,2.9601 2.61887,1.61855 25.21526,3.01095 60.89636,3.75246 42.6929,0.88722 46.85945,1.40183 57.56996,7.11047 3.16585,1.68738 6.77367,4.15113 8.01738,5.475 3.34288,3.55833 4.21832,2.92649 1.9919,-1.43765 z m -1.61683,-35.2015 c -6.08094,-6.1836 -11.17483,-9.25687 -18.9867,-11.45516 -4.8313,-1.35954 -13.34885,-1.8431 -44.47571,-2.52497 -47.30179,-1.03619 -70.000002,-3.0031 -70.000002,-6.06583 0,-2.63761 13.925912,-4.3309 49.031542,-5.96188 26.61562,-1.23654 52.73806,-0.1267 61.96846,2.6328 12.41499,3.71156 22.19033,10.91649 26.5895,19.59783 2.38687,4.71027 3.14341,8.82339 1.62291,8.82339 -0.43318,0 -3.02068,-2.27078 -5.75,-5.04618 z m 1.61683,-4.7985 c -3.85103,-7.54865 -14.04652,-14.0337 -28.07924,-17.86038 -13.9791,-3.81206 -106.920072,-1.07178 -100.39636,2.9601 2.61887,1.61855 25.21526,3.01095 60.89636,3.75246 42.6929,0.88722 46.85945,1.40183 57.56996,7.11047 3.16585,1.68738 6.77367,4.15113 8.01738,5.475 3.34288,3.55833 4.21832,2.92649 1.9919,-1.43765 z"
         style="fill:#eada9d" />
      <path
         id="path1064"
         d="m 271.83051,503.5073 c -2.475,0 2.475,0 0,0 z"
         style="fill:#b8a16d" />
      <path
         id="path1062"
         d="m 242.38245,501.3981 c 0.88992,-0.34149 -0.85357,0.32755 0,0 z"
         style="fill:#b8a16d" />
      <path
         id="path1054"
         d="m 247.29856,497.70611 c 1.17471,-1.40047 3.04156,-3.88895 3.94347,-5.67645 0.90191,-1.7875 2.06673,-3.25 2.58848,-3.25 0.52175,0 1.68657,1.4625 2.58848,3.25 0.90191,1.7875 2.72082,4.34789 3.89553,5.74836 1.17471,1.40046 0.66599,1.19198 -0.98401,-0.52188 -1.65,-1.71386 -3.5625,-3.98469 -4.25,-5.0463 -1.23493,-1.90691 -1.26507,-1.90691 -2.5,0 -0.6875,1.06161 -2.67191,3.21259 -4.32191,4.92645 -1.65,1.71386 -2.13475,1.97028 -0.96004,0.56982 z"
         style="fill:#b8a16d" />
      <path
         id="path1052"
         d="m 215.13017,494.82158 c 1.0597,-0.0555 -0.43981,0.0231 0,0 z"
         style="fill:#b8a16d" />
      <path
         id="path1044"
         d="m 29.497175,492.11299 c -0.925917,-0.92591 -0.84304,-273.10629 0.08333,-273.67882 0.412501,-0.25494 0.75,61.3685 0.75,136.94098 0,75.57248 -0.0375,137.40451 -0.08333,137.40451 -0.04583,0 -0.383334,-0.3 -0.75,-0.66667 z"
         style="fill:#b8a16d" />
      <path
         id="path1042"
         d="m 91.580508,492.02999 c 21.037502,-0.15077 55.462502,-0.15077 76.500002,0 21.0375,0.15076 3.825,0.27412 -38.25,0.27412 -42.075002,0 -59.287502,-0.12336 -38.250002,-0.27412 z"
         style="fill:#b8a16d" />
      <path
         id="path1040"
         d="m 339.41102,491.8944 c 21.0375,-0.15077 55.63199,-0.0152 76.66949,0.13559 21.0375,0.15076 3.825,0.27412 -38.25,0.27412 -42.075,0 -59.45699,-0.25895 -38.41949,-0.40971 z"
         style="fill:#b8a16d" />
      <path
         id="path1038"
         d="m 477.33051,355.27963 c 0,-75.51996 0.3375,-137.10043 0.75,-136.84549 0.4125,0.25494 0.75,61.83541 0.75,136.84549 0,75.01008 -0.3375,136.59055 -0.75,136.84549 -0.4125,0.25494 -0.75,-61.32553 -0.75,-136.84549 z"
         style="fill:#b8a16d" />
      <path
         id="path1036"
         d="m 250.73465,476.02963 c -4.07465,-10.06345 -13.09394,-17.38684 -26.40414,-21.43934 -4.65541,-1.41741 -5.10361,-1.69942 -2,-1.25842 10.63179,1.5107 23.51052,10.68208 28.0612,19.98332 1.47043,3.00544 3.00956,5.46444 3.42029,5.46444 0.41074,0 1.55639,-2.11988 2.54588,-4.71085 2.30647,-6.03939 9.58144,-13.30952 17.0974,-17.08602 12.25987,-6.16014 12.9052,-6.20313 93.12264,-6.20313 55.32979,0 73.14122,-0.28863 74.05259,-1.2 0.91946,-0.91946 1.2,-28.15556 1.2,-116.5 0,-63.415 0.3375,-115.30002 0.75,-115.30005 1.27942,-9e-5 0.40449,231.10898 -0.88079,232.65765 -0.91341,1.10059 -14.15933,1.3424 -73.53381,1.3424 -78.16701,0 -80.90035,0.15964 -92.70356,5.41442 -7.9481,3.53849 -14.91586,10.44334 -18.24124,18.07655 -1.55961,3.57996 -3.13325,6.50903 -3.49698,6.50903 -0.36373,0 -1.709,-2.5875 -2.98948,-5.75 z"
         style="fill:#b8a16d" />
      <path
         id="path1034"
         d="m 214.09954,452.08664 c 0.97297,-0.25354 2.32297,-0.23687 3,0.0371 0.67703,0.27393 -0.11903,0.48137 -1.76903,0.46099 -1.65,-0.0204 -2.20394,-0.2445 -1.23097,-0.49804 z"
         style="fill:#b8a16d" />
      <path
         id="path1032"
         d="m 65.298446,450.52966 c -0.795198,-2.11808 -1.016091,-232.69836 -0.222161,-231.90432 0.410178,0.41023 0.860177,52.70027 1,116.2001 l 0.254223,115.45422 72.500002,0.50987 72.5,0.50987 -72.78138,0.24013 c -57.485225,0.18966 -72.880021,-0.0226 -73.250684,-1.00987 z"
         style="fill:#b8a16d" />
      <path
         id="path1028"
         d="m 226.91785,408.37263 c -1.24371,-1.32387 -4.85153,-3.78762 -8.01738,-5.475 -10.71051,-5.70864 -14.87706,-6.22325 -57.56996,-7.11047 -35.6811,-0.74151 -58.27749,-2.13391 -60.89636,-3.75246 -3.777483,-2.33462 28.01205,-4.65338 64.39636,-4.69714 25.20239,-0.0303 30.44693,0.22274 36,1.73704 14.03272,3.82668 24.22821,10.31173 28.07924,17.86038 2.22642,4.36414 1.35098,4.99598 -1.9919,1.43765 z"
         style="fill:#b8a16d" />
      <path
         id="path1024"
         d="m 226.91785,368.37263 c -1.24371,-1.32387 -4.85153,-3.78762 -8.01738,-5.475 -10.71051,-5.70864 -14.87706,-6.22325 -57.56996,-7.11047 -35.6811,-0.74151 -58.27749,-2.13391 -60.89636,-3.75246 -3.777483,-2.33462 28.01205,-4.65338 64.39636,-4.69714 25.20239,-0.0303 30.44693,0.22274 36,1.73704 14.03272,3.82668 24.22821,10.31173 28.07924,17.86038 2.22642,4.36414 1.35098,4.99598 -1.9919,1.43765 z"
         style="fill:#b8a16d" />
      <path
         id="path1020"
         d="m 226.91785,328.37263 c -1.24371,-1.32387 -4.85153,-3.78762 -8.01738,-5.475 -10.71051,-5.70864 -14.87706,-6.22325 -57.56996,-7.11047 -35.6811,-0.74151 -58.27749,-2.13391 -60.89636,-3.75246 -3.777483,-2.33462 28.01205,-4.65338 64.39636,-4.69714 25.20239,-0.0303 30.44693,0.22274 36,1.73704 14.03272,3.82668 24.22821,10.31173 28.07924,17.86038 2.22642,4.36414 1.35098,4.99598 -1.9919,1.43765 z"
         style="fill:#b8a16d" />
      <path
         id="path1018"
         d="m 354.79874,209.84229 c 2.3657,0 20.17945,-0.49642 23.9197,1.89387 4.76576,3.04567 -0.52329,12.81918 0.83011,17.88524 1.37509,5.14719 1.36759,27.76668 -0.0128,38.75237 -1.54284,12.27816 -2.42269,15.59033 -3.99982,15.05713 -2.35671,-0.79676 -4.10438,-13.64158 -5.02579,-36.93806 -0.85782,-21.68867 -1.20774,-23.32449 -6.15228,-28.76105 -1.29981,-1.42917 -4.2758,-3.64645 -6.6133,-4.9273 -4.53507,-2.48501 -5.00961,-2.9622 -2.94578,-2.9622 z"
         style="fill:#826628;fill-opacity:1;stroke-width:0.7396102" />
      <path
         id="path1016"
         d="m 226.91785,288.37263 c -1.24371,-1.32387 -4.85153,-3.78762 -8.01738,-5.475 -10.71051,-5.70864 -14.87706,-6.22325 -57.56996,-7.11047 -35.6811,-0.74151 -58.27749,-2.13391 -60.89636,-3.75246 -3.777483,-2.33462 28.01205,-4.65338 64.39636,-4.69714 25.20239,-0.0303 30.44693,0.22274 36,1.73704 14.03272,3.82668 24.22821,10.31173 28.07924,17.86038 2.22642,4.36414 1.35098,4.99598 -1.9919,1.43765 z"
         style="fill:#b8a16d" />
      <path
         id="path1014"
         d="m 421.48726,209.4709 c -2.3657,0 -19.79594,0.21136 -23.53619,7.46124 -4.76576,9.23767 0.13978,37.16416 -1.21362,52.52975 -1.37509,15.61169 -1.36759,84.21766 0.0128,117.5378 1.54284,37.24021 1.33794,49.12471 2.91507,47.5075 2.35671,-2.41659 5.18913,-43.21409 6.11054,-113.8734 0.85782,-65.78276 1.20774,-70.7443 6.15228,-87.23367 1.29981,-4.33472 4.2758,-11.05983 6.6133,-14.9447 4.53507,-7.53718 5.00961,-8.98452 2.94578,-8.98452 z"
         style="fill:#826628;fill-opacity:1;stroke-width:1.28807902" />
      <path
         id="path1000"
         d="m 226.91785,248.37263 c -1.24371,-1.32387 -4.85153,-3.78762 -8.01738,-5.475 -10.71051,-5.70864 -14.87706,-6.22325 -57.56996,-7.11047 -35.6811,-0.74151 -58.27749,-2.13391 -60.89636,-3.75246 -3.777483,-2.33462 28.01205,-4.65338 64.39636,-4.69714 25.20239,-0.0303 30.44693,0.22274 36,1.73704 14.03272,3.82668 24.22821,10.31173 28.07924,17.86038 2.22642,4.36414 1.35098,4.99598 -1.9919,1.43765 z"
         style="fill:#b8a16d" />
      <path
         id="path998"
         d="m 223.23628,498.73003 c -14.13345,-7.44353 -8.77915,-7.10119 -105.90577,-6.77137 l -87.000002,0.29543 V 355.26688 218.27966 h 17 17 l 0.5,116.5 0.5,116.5 76.000002,0.54704 c 69.08765,0.49729 76.54076,0.70941 81.94555,2.33225 13.8884,4.17012 23.33974,11.69809 27.45859,21.87071 1.28048,3.1625 2.62575,5.75 2.98948,5.75 0.36373,0 1.93737,-2.92907 3.49698,-6.50903 3.32538,-7.63321 10.29314,-14.53806 18.24124,-18.07655 11.80321,-5.25478 14.53655,-5.41442 92.70356,-5.41442 59.50734,0 72.61909,-0.24024 73.53794,-1.34738 0.80677,-0.97211 1.18903,-33.48971 1.37244,-116.75 l 0.25422,-115.40262 h 17 17 v 136.98722 136.98721 l -87,-0.29543 c -97.12662,-0.32982 -91.77232,-0.67216 -105.90577,6.77137 -12.03338,6.33752 -20.34052,5.18926 -26.07043,-3.60358 -4.91342,-7.5399 -4.37229,-7.07352 -5.7738,-4.97621 -0.6875,1.02882 -2.16071,3.26812 -3.2738,4.97621 -5.72991,8.79284 -14.03705,9.9411 -26.07043,3.60358 z"
         style="fill:#e54c3c" />
      <path
         id="path1079"
         d="m 345.58896,208.66198 c -2.3657,0 -18.23762,-1.44459 -22.38564,4.8219 -7.12646,10.76608 -1.01077,35.40213 -2.36417,49.25225 -1.37509,14.07192 -1.36759,75.91136 0.0128,105.94515 1.54284,33.56727 2.42269,42.62241 3.99982,41.16471 2.35671,-2.17825 4.10438,-37.29474 5.02579,-100.985 0.85782,-59.29467 1.20774,-63.76687 6.15228,-78.62991 1.29981,-3.90719 4.2758,-9.969 6.6133,-13.47072 4.53507,-6.79379 5.00961,-8.09838 2.94578,-8.09838 z"
         style="fill:#826628;fill-opacity:1;stroke-width:1.22290945" />
      <path
         style="fill:#826628;fill-opacity:1;stroke-width:0.94817424"
         d="m 307.37742,211.13108 c -2.3657,0 -19.1572,-1.85074 -22.89745,2.07772 -4.76576,5.00557 -2.53286,20.34246 -2.66592,29.8424 -1.37509,8.45943 -0.55403,46.22155 0.82636,64.27657 1.54284,20.17918 2.42269,25.62274 3.99982,24.74644 2.35671,-1.30947 4.10438,-22.41999 5.02579,-60.70782 0.85782,-35.64539 1.20774,-38.33388 6.15228,-47.26889 1.29981,-2.34884 4.2758,-5.99294 6.6133,-8.09802 4.53507,-4.08413 5.00961,-4.8684 2.94578,-4.8684 z"
         id="path1081" />
      <path
         id="path1085"
         d="m 383.6486,300.15728 c -2.3657,0 -20.17945,-0.61151 -23.9197,2.33299 -4.76576,3.75184 0.52329,15.79145 -0.83011,22.03213 -1.37509,6.34063 -1.36759,34.2047 0.0128,47.73755 1.54284,15.12498 2.42269,19.20511 3.99982,18.54829 2.35671,-0.98149 4.10438,-16.80454 5.02579,-45.50256 0.85782,-26.71743 1.20774,-28.73254 6.15228,-35.42963 1.29981,-1.76054 4.2758,-4.49191 6.6133,-6.06975 4.53507,-3.06119 5.00961,-3.64902 2.94578,-3.64902 z"
         style="fill:#826628;fill-opacity:1;stroke-width:0.82088774" />
      <path
         style="fill:#826628;fill-opacity:1;stroke-width:0.52775347"
         d="m 264.69812,279.73777 c -0.23556,-1.69656 1.03983,-8.20956 2.26839,-11.58395 1.56541,-4.29959 5.25656,-14.87843 8.51495,-17.31584 3.31059,-2.47645 18.4615,-1.48722 25.95693,-3.67851 8.37732,-2.44857 10.57469,0.0998 10.3746,1.38519 -0.29899,1.92079 -10.77121,-0.80435 -26.28306,6.60167 -14.4413,6.8949 -13.35045,10.33134 -16.49944,15.4514 -0.8278,1.34595 -2.01657,4.12215 -2.64172,6.16934 -1.21285,3.97181 -1.48522,4.45029 -1.69072,2.97023 z"
         id="path1061" />
      <path
         id="path1063"
         d="m 383.98188,317.98741 c -0.003,1.71283 -2.17444,7.98437 -3.86153,11.15447 -2.14966,4.0393 -7.27989,14.00008 -10.84632,15.95932 -3.62357,1.99062 -18.48852,-1.10162 -26.21628,0.0231 -8.6369,1.2565 -10.45746,-1.57338 -10.08008,-2.81832 0.5639,-1.86033 10.55381,2.29845 26.94683,-2.87219 15.26165,-4.81382 14.66064,-8.3688 18.49282,-12.99973 1.00739,-1.21737 2.57167,-3.80068 3.47618,-5.7407 1.75484,-3.76388 2.09126,-4.19971 2.08838,-2.70545 z"
         style="fill:#826628;fill-opacity:1;stroke-width:0.52775347" />
      <path
         style="fill:#826628;fill-opacity:1;stroke-width:0.52775347"
         d="m 384.35344,370.02093 c -0.6245,-1.59493 -0.90225,-8.22582 -0.49401,-11.79362 0.52017,-4.54603 1.644,-15.69383 4.24455,-18.82356 2.64221,-3.17986 17.60642,-5.74918 24.38468,-9.62712 7.57589,-4.33367 10.3067,-2.36764 10.41171,-1.07101 0.15694,1.93758 -10.66202,1.72831 -24.02051,12.54577 -12.43653,10.07092 -10.57477,13.15846 -12.44368,18.87146 -0.49129,1.50182 -1.00027,4.47863 -1.13105,6.61515 -0.25372,4.14511 -0.40706,4.67389 -0.95187,3.28249 z"
         id="path854" />
      <path
         id="path856"
         d="m 339.05662,356.23993 c -0.66372,1.57901 -11.56507,4.04641 -14.34436,6.32048 -3.54132,2.89759 -7.2916,12.17665 -11.33776,12.60867 -4.11098,0.43893 4.79983,-11.86653 10.12168,-14.661 1.39899,-0.73461 16.13927,-5.64523 15.56026,-4.26771 z"
         style="fill:#826628;fill-opacity:1;stroke-width:0.52775347" />
      <path
         style="fill:#826628;fill-opacity:1;stroke-width:0.52775347"
         d="m 416.25995,325.02936 c -0.66372,-1.57901 -11.56507,-4.04641 -14.34436,-6.32048 -3.54132,-2.89759 -7.2916,-12.17665 -11.33776,-12.60867 -4.11098,-0.43893 4.79983,11.86653 10.12168,14.661 1.39899,0.73461 16.13927,5.64523 15.56026,4.26771 z"
         id="path860" />
      <path
         style="fill:#826628;fill-opacity:1;stroke-width:0.52775347"
         d="m 386.69293,384.0579 c -0.6245,-1.59493 -0.90225,-8.22582 -0.49401,-11.79362 0.52017,-4.54603 1.644,-15.69383 4.24455,-18.82356 2.64221,-3.17986 17.60642,-5.74918 24.38468,-9.62712 7.57589,-4.33367 10.3067,-2.36764 10.41171,-1.07101 0.15694,1.93758 -10.66202,1.72831 -24.02051,12.54577 -12.43653,10.07092 -10.57477,13.15846 -12.44368,18.87146 -0.49129,1.50182 -1.00027,4.47863 -1.13105,6.61515 -0.25372,4.14511 -0.40706,4.67389 -0.95187,3.28249 z"
         id="path866" />
      <path
         id="path868"
         d="m 424.05826,289.95425 c -0.66372,1.57901 -11.56507,4.04641 -14.34436,6.32048 -3.54132,2.89759 -7.2916,12.17665 -11.33776,12.60867 -4.11098,0.43893 4.79983,-11.86653 10.12168,-14.661 1.39899,-0.73461 16.13927,-5.64523 15.56026,-4.26771 z"
         style="fill:#826628;fill-opacity:1;stroke-width:0.52775347" />
      <path
         id="path870"
         d="m 425.61794,413.78319 c -0.66372,-1.57901 -5.08584,-6.52782 -7.86513,-8.80189 -3.54132,-2.89759 -12.11656,-10.10881 -16.16272,-10.54083 -4.11098,-0.43893 -16.63296,8.14762 -24.19655,10.09063 -8.45322,2.17209 -9.04138,5.4852 -8.21302,6.48824 1.23782,1.49888 8.85061,-6.19132 25.96951,-7.74376 15.93744,-1.44528 16.75413,2.06643 22.07598,4.8609 1.39899,0.73461 3.83864,2.51466 5.42144,3.95568 3.07083,2.79577 3.54932,3.06811 2.97031,1.69059 z"
         style="fill:#826628;fill-opacity:1;stroke-width:0.52775347" />
      <path
         style="fill:#826628;fill-opacity:1;stroke-width:0.52775347"
         d="m 273.61735,391.07638 c -0.6245,-1.59493 -0.90225,-8.22582 -0.49401,-11.79362 0.52017,-4.54603 1.644,-15.69383 4.24455,-18.82356 2.64221,-3.17986 17.60642,-5.74918 24.38468,-9.62712 7.57589,-4.33367 10.3067,-2.36764 10.41171,-1.07101 0.15694,1.93758 -10.66202,1.72831 -24.02051,12.54577 -12.43653,10.07092 -10.57477,13.15846 -12.44368,18.87146 -0.49129,1.50182 -1.00027,4.47863 -1.13105,6.61515 -0.25372,4.14511 -0.40706,4.67389 -0.95187,3.28249 z"
         id="path872" />
      <path
         id="path874"
         d="m 304.74402,364.02094 c -0.66372,-1.57901 -11.56507,-4.04641 -14.34436,-6.32048 -3.54132,-2.89759 -7.2916,-12.17665 -11.33776,-12.60867 -4.11098,-0.43893 4.79983,11.86653 10.12168,14.661 1.39899,0.73461 16.13927,5.64523 15.56026,4.26771 z"
         style="fill:#826628;fill-opacity:1;stroke-width:0.52775347" />
    </g>
    <rect
       y="-101.62487"
       x="-1153.6147"
       height="228.57527"
       width="167.21278"
       id="rect1047"
       style="opacity:1;fill:none;fill-opacity:1;fill-rule:nonzero;stroke:#ffef06;stroke-width:59.09999847;stroke-linecap:round;stroke-linejoin:miter;stroke-miterlimit:4;stroke-dasharray:none;stroke-dashoffset:0;stroke-opacity:0" />
    <rect
       y="-115.43143"
       x="-1207.3069"
       height="533.85364"
       width="288.40369"
       id="rect1049"
       style="opacity:1;fill:none;fill-opacity:1;fill-rule:nonzero;stroke:#ffef06;stroke-width:59.09999847;stroke-linecap:round;stroke-linejoin:miter;stroke-miterlimit:4;stroke-dasharray:none;stroke-dashoffset:0;stroke-opacity:0" />
    <path
       id="rect1051"
       d="m -97.097682,178.34538 0.628232,373.53432 -38.76535,45.83421 1.85866,-366.50139 z"
       style="opacity:1;fill:#e1d9b6;fill-opacity:1;fill-rule:nonzero;stroke:#ffef06;stroke-width:26.69487953;stroke-linecap:round;stroke-linejoin:miter;stroke-miterlimit:4;stroke-dasharray:none;stroke-dashoffset:0;stroke-opacity:0" />
    <rect
       transform="matrix(0,1,0.61399266,0.78931173,0,0)"
       style="opacity:1;fill:#ab9f77;fill-opacity:1;fill-rule:nonzero;stroke:#ffef06;stroke-width:34.06798172;stroke-linecap:round;stroke-linejoin:miter;stroke-miterlimit:4;stroke-dasharray:none;stroke-dashoffset:0;stroke-opacity:0"
       id="rect1053"
       width="370.62424"
       height="65.35582"
       x="-365.96442"
       y="691.19989" />
    <path
       id="rect1055"
       d="m -96.469447,551.87968 c 0,0 144.737517,0.81193 215.209377,2.09464 13.25449,0.24126 33.66833,18.87099 33.66833,18.87099 -0.016,-0.0125 14.73769,18.41069 12.32696,27.22344 -2.1886,8.00067 -14.66761,16.19226 -23.03336,14.80868 -8.59897,-1.42214 -20.7312,-12.72364 -29.81937,-13.39133 -82.468811,-6.05892 -247.11729,-3.77219 -247.11729,-3.77219 z"
       style="opacity:1;fill:#c9bc8f;fill-opacity:1;fill-rule:nonzero;stroke:#ffef06;stroke-width:82.95488739;stroke-linecap:round;stroke-linejoin:miter;stroke-miterlimit:4;stroke-dasharray:none;stroke-dashoffset:0;stroke-opacity:0" />
    <path
       style="opacity:1;fill:#c9bc8f;fill-opacity:1;fill-rule:nonzero;stroke:#ffef06;stroke-width:82.95488739;stroke-linecap:round;stroke-linejoin:miter;stroke-miterlimit:4;stroke-dasharray:none;stroke-dashoffset:0;stroke-opacity:0"
       d="m 426.45228,552.24796 c 0,0 -210.62514,0.72954 -220.86769,3.22629 -13.20768,3.21958 -24.17208,7.21802 -33.81116,18.06129 -5.25159,5.90766 -13.40776,18.01214 -12.67184,24.21515 0.56245,4.74088 -0.26673,4.64383 4.77893,9.70268 5.59864,5.61329 9.4896,9.97445 16.93024,9.74707 8.55646,-0.26146 22.73171,-13.92393 31.81987,-14.59164 82.46882,-6.05892 251.88935,-0.79014 251.88935,-0.79014 z"
       id="path1059" />
  </g>
  <g
     transform="translate(157.70467,11.321563)"
     style="display:inline"
     id="layer1">
    <g
       transform="matrix(1.391,0,0,1.391,1633.822,-310.35275)"
       id="g8062"
       style="display:inline">
      <path
         id="path8074"
         d="m -941.15027,473.27854 c 29.43454,-9.96468 44.02537,-44.08462 28.74503,-67.21887 -7.08966,-10.73366 -35.4478,-36.02144 -43.86598,-39.11651 -3.09854,-1.13925 -10.09876,-8.62641 -15.55608,-16.63815 -10.34045,-15.18057 -27.24924,-31.79687 -48.4926,-47.65391 l -12.5274,-10.16153 9.2227,1.76024 c 5.0726,0.96814 19.5228,2.61494 32.03914,2.61494 22.69567,0 48.28105,-17.64367 46.6907,-28.98333 -2.30466,-16.4321 -46.53635,-40.90249 -56.89354,-43.99382 -33.0778,-9.87275 -73.5658,-7.17722 -93.6699,6.23618 -15.4272,10.293 -22.2221,21.4839 -22.1957,36.55463 0.028,16.37699 5.6661,23.91261 38.7839,51.84352 l 25.4526,21.46616 -32.6938,1.42233 c -63.5704,2.76561 -105.8433,15.06291 -122.0727,35.51125 -4.5844,5.77615 -11.3858,14.32726 -15.1142,19.00246 -4.0209,5.04202 -6.8682,12.5651 -6.9984,18.49121 -0.7936,36.14065 66.0375,58.03495 169.2466,55.44633 37.857,-0.94951 46.771,-0.52781 61.20184,2.89543 20.91157,4.96054 44.95439,5.17413 58.69779,0.52144 z"
         style="fill:#fff93e;fill-opacity:1;stroke-width:2.60139346" />
      <path
         id="path8072"
         d="m -947.86379,474.53081 c 13.83162,-2.74977 31.62213,-17.79768 37.52036,-31.73622 9.4102,-22.23794 -0.54983,-41.35178 -34.39204,-66.00017 -11.28315,-8.21792 -23.08658,-18.86824 -26.22961,-23.66738 -8.67928,-13.25222 -26.2061,-31.00733 -45.85862,-46.45617 -9.7335,-7.65144 -17.3283,-14.16522 -16.8773,-14.47506 0.451,-0.30984 7.8158,0.92376 16.3664,2.74132 45.34257,9.63843 82.60052,-8.95247 70.39532,-35.12572 -2.10989,-4.52439 -5.87181,-10.00392 -8.93933,-12.3757 -3.06739,-2.37178 -26.21092,-16.33457 -37.23789,-20.01835 -62.6454,-20.92788 -123.229,-2.00473 -123.229,38.8142 0,15.21659 9.3787,27.74688 39.0674,52.19486 12.9609,10.67302 23.5963,20.0302 23.6344,20.79372 0.038,0.76353 -12.995,2.0702 -28.9624,2.90371 -70.4682,3.67852 -109.0891,14.62825 -124.5409,35.30974 -3.2193,4.30871 -9.6346,12.68538 -14.2564,18.61485 -21.2342,27.2421 2.9912,53.59552 60.49,65.80349 31.4073,6.66834 83.2036,9.85455 114.1644,7.02277 24.3804,-2.22992 27.6,-2.04489 48.0993,2.76438 23.28874,5.46373 34.60674,6.10817 50.78591,2.89173 z m -66.47881,-19.48477 c -6.9048,-2.23868 -10.1449,-3.61969 -7.2002,-3.06891 28.30346,5.29375 43.05429,6.16771 54.16823,3.20943 12.20198,-3.24788 16.11825,-6.88963 27.04512,-25.14938 7.75805,-12.96429 12.30629,-12.92793 12.27648,0.0981 -0.0351,15.32834 -14.32471,26.22363 -38.39956,29.27829 -16.98885,2.15557 -31.99005,0.78743 -47.89007,-4.36757 z m 1.6973,-35.70926 c 16.56287,-12.9595 22.68777,-24.85058 21.3264,-41.40321 -1.74718,-21.24149 -14.6211,-37.12324 -60.3451,-74.44411 -6.7171,-5.48266 -11.3729,-10.5455 -10.3465,-11.25075 5.6132,-3.85618 20.0906,3.30202 42.6698,21.09763 39.48526,31.1198 52.43834,53.81549 44.19217,77.43036 -4.20715,12.0479 -18.97008,25.38374 -36.05547,32.56981 -12.9651,5.45313 -13.0877,5.11287 -1.4413,-3.99973 z m -147.221,-26.71716 c -3.6829,-2.35717 -6.6962,-5.29288 -6.6962,-6.52379 0,-4.91457 18.7207,-14.65368 34.2625,-17.82443 19.769,-4.0332 69.2555,-6.65857 74.9135,-3.97434 2.2189,1.05268 4.8449,5.34499 5.8354,9.53846 l 1.801,7.62449 -34.9561,0.98944 c -28.9869,0.82049 -36.4147,1.74662 -43.498,5.42357 -4.698,2.43877 -8.4474,6.37638 -8.3318,8.75023 0.183,3.75877 -0.8774,4.05566 -8.2121,2.29912 -4.6321,-1.10934 -11.4352,-3.94558 -15.1182,-6.30275 z m 127.7469,-107.48483 c -20.7616,-6.72549 -38.7619,-17.84704 -36.2281,-22.38341 3.4086,-6.10244 14.6604,-4.11776 45.9554,8.10599 16.5107,6.44905 34.25652,12.40485 39.43516,13.23511 13.74102,2.20302 16.0348,3.59275 9.20722,5.57843 -10.34861,3.00979 -42.87988,0.48169 -58.36968,-4.53612 z m -8.7786,-32.87804 c -8.4628,-6.24043 -8.0766,-11.57418 1.3043,-18.01886 19.6092,-13.47132 52.95517,2.25569 36.0633,17.00856 -8.6211,7.52947 -27.8228,8.04862 -37.3676,1.0103 z m 21.6776,-1.53128 c 4.3489,-5.58248 1.355,-18.0918 -4.039,-16.87677 -4.6842,1.05512 -6.4805,13.32149 -2.641,18.03485 2.653,3.25657 3.3327,3.13873 6.68,-1.15808 z"
         style="fill:#3b8fc3;fill-opacity:1;stroke-width:2.60139346" />
      <path
         id="path8076"
         d="m -910.73594,379.44769 v -137.9947 h -162.53966 -162.5397 v 137.9947 137.99469 h 162.5397 162.53966 z"
         style="opacity:0;fill:#fefefe;stroke-width:2.34008121" />
      <path
         id="path8070"
         d="m -947.86379,474.53081 c 13.83162,-2.74977 31.62213,-17.79768 37.52036,-31.73622 9.4102,-22.23794 -0.54983,-41.35178 -34.39204,-66.00017 -11.28315,-8.21792 -23.08658,-18.86824 -26.22961,-23.66738 -8.67928,-13.25222 -26.2061,-31.00733 -45.85862,-46.45617 -9.7335,-7.65144 -17.3283,-14.16522 -16.8773,-14.47506 0.451,-0.30984 7.8158,0.92376 16.3664,2.74132 45.34257,9.63843 82.60052,-8.95247 70.39532,-35.12572 -2.10989,-4.52439 -6.70129,-10.1088 -9.29476,-12.64338 -1.17165,-1.35509 -1.79084,-1.83968 -9.09627,-6.9098 -3.75507,-2.60611 -17.23315,-9.31989 -28.26012,-13.00368 -62.64537,-20.92787 -122.75507,-1.84192 -122.75507,38.97701 0,15.21659 9.3787,27.74688 39.0674,52.19486 12.9609,10.67302 23.5963,20.0302 23.6344,20.79372 0.038,0.76353 -12.995,2.0702 -28.9624,2.90371 -70.4682,3.67852 -109.0891,14.62825 -124.5409,35.30974 -3.2193,4.30871 -9.6346,12.68538 -14.2564,18.61485 -21.2342,27.2421 2.9912,53.59552 60.49,65.80349 31.4073,6.66834 83.2036,9.85455 114.1644,7.02277 24.3804,-2.22992 27.6,-2.04489 48.0993,2.76438 23.28874,5.46373 34.60674,6.10817 50.78591,2.89173 z M -1060.696,462.55338 c 2.1249,-0.59062 6.362,-0.62656 9.4156,-0.0798 3.0538,0.54668 1.3153,1.02992 -3.8633,1.07386 -5.1787,0.044 -7.6772,-0.40333 -5.5523,-0.99397 z m 40.2604,-7.95321 c -20.4677,-6.43741 -23.0471,-9.0481 -4.4973,-4.55191 7.1219,1.72623 16.2188,3.1386 20.2154,3.1386 3.9966,0 8.13951,0.97028 9.20626,2.15617 2.75263,3.05971 18.81267,2.67018 30.70171,-0.74468 10.44157,-2.99907 12.90812,-5.47954 24.42311,-24.56117 3.74746,-6.20993 8.18206,-10.70972 9.85466,-9.99956 1.68709,0.71631 2.76584,-0.97668 2.42288,-3.8024 -0.34003,-2.80149 -0.40534,-7.03417 -0.14515,-9.40595 0.39586,-3.60852 1.32459,-3.2566 5.69041,2.15617 6.2167,7.7075 7.22771,29.87305 1.54077,33.77996 -3.0688,2.10823 -3.8781,2.01144 -3.90568,-0.46718 -0.0192,-1.71954 -3.79078,0.14834 -8.38143,4.1511 -18.50606,16.13562 -51.82682,19.25289 -87.12564,8.15085 z m -123.307,3.75251 c 1.043,-0.71648 3.7499,-0.79306 6.0157,-0.17013 2.5037,0.68829 1.76,1.19922 -1.8963,1.30267 -3.3086,0.0936 -5.1623,-0.41596 -4.1194,-1.13246 z m -26.1101,-5.00708 c -31.7235,-8.281 -50.2873,-22.42498 -49.7322,-37.89166 0.2954,-8.23088 0.4143,-8.32932 2.6018,-2.15617 5.976,16.86395 22.4321,28.68403 53.9808,38.77358 19.9623,6.38409 15.7362,7.1702 -6.8504,1.27425 z m 207.29629,-13.90982 c 0,-0.44773 2.47162,-2.14571 5.49254,-3.77329 4.97783,-2.682 5.08893,-2.60573 1.18489,0.81408 -4.10003,3.59164 -6.67743,4.73382 -6.67743,2.95921 z m -51.57809,-19.13046 c 12.6552,-10.29703 23.26556,-27.32331 23.30053,-37.39025 0.042,-12.26928 -6.98786,-27.046 -18.97233,-39.87645 -9.8757,-10.57285 -10.5554,-10.86742 -23.7844,-10.30854 -13.5425,0.57212 -13.7414,0.47415 -35.825,-17.645 -28.1337,-23.08326 -37.5356,-35.35481 -37.4453,-48.87403 0.084,-12.52266 8.6667,-26.26441 20.3471,-32.57635 33.7476,-18.23686 106.16389,-4.84666 127.23374,23.52628 8.39656,11.30703 7.71118,17.94365 -2.67799,25.93169 -11.30614,8.69309 -32.74216,10.65564 -57.61575,5.27494 -19.5425,-4.22748 -45.7657,-16.61396 -49.3789,-23.32401 l -2.5168,-4.67392 -3.8155,4.89795 c -4.2419,5.44511 -2.0217,15.88589 4.9275,23.17202 3.1847,3.33903 6.5655,4.286 12.513,3.50492 6.9211,-0.90893 11.4341,1.33102 29.943,14.86197 36.08072,26.37677 55.92959,51.00297 55.92959,69.39118 0,13.97785 -8.5436,28.0774 -22.6523,37.38318 -11.44679,7.55014 -23.06989,13.4205 -27.05899,13.66639 -0.585,0.036 2.812,-3.08783 7.5488,-6.94197 z m -5.0859,-169.57985 c 4.3489,-5.58248 1.355,-18.0918 -4.039,-16.87677 -4.6842,1.05512 -6.4805,13.32149 -2.641,18.03485 2.653,3.25657 3.3327,3.13873 6.68,-1.15808 z m -137.9264,144.38991 c -10.9816,-5.33507 -11.5444,-11.93262 -1.5601,-18.28945 14.399,-9.16766 33.9751,-12.50699 76.8855,-13.11531 21.5775,-0.3059 36.7601,-0.11835 33.7391,0.41675 -4.4695,0.79166 -5.138,2.49682 -3.5887,9.15302 l 1.904,8.1801 -34.9476,0.9892 c -28.9786,0.82025 -36.4066,1.74655 -43.4896,5.42333 -4.8723,2.52921 -8.4329,6.40833 -8.2882,9.02954 0.2021,3.65832 -1.0778,4.33331 -6.277,3.31007 -3.5921,-0.70693 -10.0618,-3.0007 -14.3774,-5.09725 z m 200.96073,-15.77724 -7.36442,-7.00754 8.34342,5.22722 c 4.58892,2.87498 8.34342,6.02837 8.34342,7.00755 0,2.99389 -1.66216,2.06187 -9.32242,-5.22723 z"
         style="fill:#525d8f;fill-opacity:1;stroke-width:2.60139346" />
      <path
         id="path8068"
         d="m -943.40451,465.50138 c 9.53704,-4.41315 31.06955,-26.01696 22.16117,-22.23459 -2.05248,0.87146 -3.65039,0.33533 -3.65039,-1.22479 0,-1.52607 -4.24659,0.7646 -9.43687,5.09041 -18.96703,15.8079 -50.9651,18.51982 -86.5312,7.3337 -20.2277,-6.36192 -22.4226,-8.866 -3.8189,-4.35672 13.8026,3.34553 37.01596,3.57913 37.01596,0.37252 0,-1.02403 1.41228,-1.26222 3.13845,-0.52929 1.7263,0.73292 3.13858,0.469 3.13858,-0.58649 0,-1.05548 3.79664,-3.29587 8.43694,-4.97863 12.16898,-4.41292 23.05544,-12.41143 28.03388,-20.59698 5.03369,-8.27631 5.8094,-30.09384 1.14065,-32.07616 -1.75435,-0.74488 -2.37719,-2.25755 -1.3841,-3.3615 0.99322,-1.10394 0.5356,-2.00717 -1.01682,-2.00717 -1.5523,0 -6.57894,-3.62701 -11.17008,-8.06002 l -8.34774,-8.06001 v 7.97913 c 0,22.56213 -25.79013,45.99658 -61.36052,55.75566 -16.9314,4.64527 -23.3555,5.12299 -68.8895,5.12299 -44.7305,0 -52.1365,-0.52875 -67.788,-4.8399 -22.3617,-6.15942 -39.411,-17.76802 -44.8232,-30.51931 -3.8988,-9.18592 -4.3343,-9.4729 -6.7333,-4.4362 -8.5568,17.96565 10.7896,39.18444 46.3476,50.83341 6.3394,2.07682 10.8787,4.49596 10.0871,5.37582 -0.7915,0.87986 1.3875,1.09195 4.8423,0.4713 3.4547,-0.62068 6.2813,-0.13588 6.2813,1.07731 0,1.21319 2.8248,1.69832 6.2772,1.07808 3.4525,-0.62025 6.2771,-0.14683 6.2771,1.05184 0,1.19877 3.1778,2.29589 7.0618,2.43805 3.8839,0.14208 16.0751,0.82259 27.0913,1.51203 11.0164,0.68943 33.2097,0.18564 49.3184,-1.1195 27.8031,-2.25264 30.477,-2.09903 52.71054,3.0284 29.06489,6.70283 41.88094,6.8104 55.59035,0.46661 z M -1059.1943,433.6069 c 32.7879,-3.30227 48.0659,-11.31088 62.09628,-32.55046 11.03229,-16.70104 6.53049,-37.42104 -12.57428,-57.87446 -9.1721,-9.81936 -11.0651,-10.74048 -22.0743,-10.74048 -13.7137,0 -17.7483,2.53138 -10.5635,6.6278 9.7433,5.55524 20.8455,24.06669 20.8455,34.75743 0,19.61726 -17.7511,28.48596 -62.0971,31.0247 -40.0353,2.29196 -79.9024,-6.48684 -82.4283,-18.1509 -1.3289,-6.13698 11.7189,-14.21121 30.2497,-18.71887 18.4437,-4.48645 80.7615,-6.86362 94.3872,-3.60046 11.225,2.68828 11.2238,2.69 5.2474,-7.13629 -5.7188,-9.40287 -13.1453,-10.71299 -49.9762,-8.81631 -53.4341,2.75173 -92.2048,11.97854 -106.5554,25.35851 -3.4029,3.17286 -6.8694,10.64668 -7.7034,16.60848 -3.186,22.77962 22.4155,38.64548 69.8716,43.30116 25.3586,2.48781 45.9391,2.46187 71.2748,-0.0899 z m 132.0706,-27.85357 c 0.90237,-2.3706 0.36091,-4.85355 -1.20323,-5.51766 -1.56415,-0.66412 -2.84391,1.27547 -2.84391,4.31019 0,6.60658 1.7888,7.14028 4.04714,1.20747 z m -140.5743,-7.93935 c 14.4428,-2.22831 26.6778,-5.44486 26.6778,-7.01356 0,-2.85637 -41.3052,-4.43729 -62.1985,-2.3806 -10.9052,1.07351 -22.0385,3.21222 -24.7403,4.7527 -4.3477,2.47883 -4.0526,2.96642 2.5659,4.24059 8.3906,1.61536 48.038,1.89083 57.6951,0.40087 z m -8.0942,-127.00291 c -0.1505,-2.51182 -0.8942,-3.02273 -1.8962,-1.3027 -0.9066,1.55649 -0.7951,3.41618 0.2479,4.13266 1.0429,0.71647 1.7846,-0.55701 1.6483,-2.82996 z m -31.3855,-4.31234 c -0.1505,-2.51181 -0.8942,-3.02273 -1.8962,-1.30269 -0.9066,1.55649 -0.7951,3.41618 0.2478,4.13265 1.0428,0.71648 1.7847,-0.557 1.6484,-2.82996 z m 88.1273,-22.33282 c 0,-4.67359 -1.2616,-9.03312 -2.8037,-9.68785 -3.7154,-1.5775 -7.3803,8.81302 -4.9579,14.05629 3.2644,7.06598 7.7616,4.53483 7.7616,-4.36844 z"
         style="fill:#3558b5;fill-opacity:1;stroke-width:2.60139346" />
      <path
         id="path8066"
         d="m -978.96949,465.7173 c -0.68389,-1.40951 -8.2165,-3.66441 -16.73899,-5.01089 -15.83622,-2.50199 -43.89302,-11.3691 -41.39772,-13.08341 0.7612,-0.52287 7.3542,0.49642 14.6512,2.26512 12.6305,3.06146 13.9882,2.96482 28.28918,-2.01371 43.01096,-14.97326 57.71124,-37.08874 39.13102,-58.8697 l -8.17115,-9.57876 -7.18658,14.6707 c -8.98453,18.34111 -28.61604,32.17517 -56.51597,39.82603 -17.1024,4.68986 -23.4019,5.16076 -69.0365,5.16076 -44.8936,0 -52.0467,-0.51487 -67.4789,-4.8572 -20.3656,-5.73049 -28.1261,-9.89076 -39.0178,-20.91679 -5.5516,-5.62014 -8.0605,-6.93601 -8.0605,-4.22757 0,6.73767 12.5838,22.17625 22.999,28.21649 13.5146,7.83771 44.2253,17.59254 60.7433,19.29423 9.0922,0.9367 13.5528,2.46704 13.5528,4.64968 0,2.31314 1.134,2.63143 3.9233,1.10125 2.1577,-1.18372 21.5215,-2.62754 43.0305,-3.20851 35.3626,-0.95514 41.1424,-0.56787 60.3583,4.04436 24.00122,5.7608 28.70433,6.20411 26.92551,2.53792 z m -79.89621,-32.1386 c 32.2699,-3.24146 51.947,-14.36305 62.23692,-35.17681 l 5.42741,-10.97812 -14.09113,-0.66186 c -11.8848,-0.55823 -15.7431,0.3345 -24.6403,5.70121 -15.2251,9.1836 -30.5195,11.98846 -66.0122,12.10602 -35.4462,0.1174 -56.8798,-4.0658 -67.2536,-13.12603 -5.2496,-4.58484 -8.2655,-5.25029 -21.2191,-4.68189 -14.5579,0.63878 -15.1353,0.91768 -16.0942,7.77343 -1.6061,11.48075 11.8547,24.90182 31.5914,31.49825 26.3052,8.79176 68.7075,11.69905 110.0548,7.5458 z m -8.8323,-35.76472 c 14.4428,-2.22831 26.6778,-5.44486 26.6778,-7.01356 0,-2.85637 -41.3052,-4.43729 -62.1985,-2.3806 -10.9052,1.07351 -22.0385,3.21222 -24.7403,4.7527 -4.3477,2.47883 -4.0526,2.96642 2.5659,4.24059 8.3906,1.61536 48.038,1.89083 57.6951,0.40087 z m 48.6476,-153.64807 c 0,-4.67359 -1.2616,-9.03312 -2.8037,-9.68785 -3.7154,-1.5775 -7.3803,8.81302 -4.9579,14.05629 3.2644,7.06598 7.7616,4.53483 7.7616,-4.36844 z"
         style="fill:#1d4296;fill-opacity:1;stroke-width:2.60139346" />
      <path
         id="path8064"
         d="m -1103.7914,456.42111 c 2.8796,-2.38369 10.5373,-3.23425 29.1177,-3.23425 25.0119,0 25.1659,-0.034 19.53,-4.31233 -5.492,-4.16903 -5.4821,-4.31063 0.2982,-4.26089 3.2883,0.0283 11.4257,0.91972 18.0831,1.98095 9.5018,1.51466 15.1003,1.04735 26.0374,-2.17345 32.09808,-9.45225 50.64861,-26.31751 46.33243,-42.12334 l -2.19763,-8.04752 -6.09883,8.16689 c -9.43374,12.63268 -31.80477,26.22736 -51.48207,31.28513 -36.172,9.29756 -95.4619,10.77613 -132.253,3.29811 -13.5161,-2.74726 -14.2838,-2.7177 -8.5691,0.33004 9.5104,5.072 31.9979,11.388 46.0368,12.93024 10.2198,1.12269 12.2467,2.11485 11.0017,5.38545 -1.848,4.85476 -0.964,5.0193 4.1633,0.77497 z m 61.2018,-26.08887 c 8.631,-1.86098 17.0345,-4.27192 18.6745,-5.35766 1.8072,-1.19648 -27.2454,-1.90249 -73.756,-1.79237 l -76.7378,0.18167 14.1236,4.55961 c 19.0526,6.15094 93.2933,7.67034 117.6957,2.40875 z m -29.8162,-32.54144 c 14.159,-1.63242 28.247,-5.27324 28.247,-7.29999 0,-2.80292 -62.901,-2.48517 -74.8569,0.37814 -5.4363,1.3019 -9.8841,3.1155 -9.8841,4.03022 0,3.46948 35.6533,5.29439 56.494,2.89163 z m 53.3554,-153.62489 c 0,-4.67359 -1.2616,-9.03312 -2.8037,-9.68785 -3.7154,-1.5775 -7.3803,8.81302 -4.9579,14.05629 3.2644,7.06598 7.7616,4.53483 7.7616,-4.36844 z"
         style="fill:#0e2b71;fill-opacity:1;stroke-width:2.60139346" />
    </g>
  </g>
</svg>
